<?xml version="1.0" encoding="UTF-8" standalone="no"?>
<!-- Created with Inkscape (http://www.inkscape.org/) -->

<svg
   width="21.452795mm"
   height="27.952497mm"
   viewBox="0 0 21.452795 27.952496"
   version="1.1"
   id="svg5"
   xml:space="preserve"
   inkscape:version="1.2 (1:1.2.1+202207142221+cd75a1ee6d)"
   sodipodi:docname="full_nana.svg"
   xmlns:inkscape="http://www.inkscape.org/namespaces/inkscape"
   xmlns:sodipodi="http://sodipodi.sourceforge.net/DTD/sodipodi-0.dtd"
   xmlns="http://www.w3.org/2000/svg"
   xmlns:svg="http://www.w3.org/2000/svg"><sodipodi:namedview
     id="namedview7"
     pagecolor="#ffffff"
     bordercolor="#000000"
     borderopacity="0.25"
     inkscape:showpageshadow="2"
     inkscape:pageopacity="0.0"
     inkscape:pagecheckerboard="0"
     inkscape:deskcolor="#d1d1d1"
     inkscape:document-units="mm"
     showgrid="false"
     inkscape:zoom="1.3556054"
     inkscape:cx="188.10783"
     inkscape:cy="96.266949"
     inkscape:window-width="1294"
     inkscape:window-height="704"
     inkscape:window-x="72"
     inkscape:window-y="27"
     inkscape:window-maximized="1"
     inkscape:current-layer="layer1" /><defs
     id="defs2" /><g
     inkscape:label="Camada 1"
     inkscape:groupmode="layer"
     id="layer1"
     transform="translate(-75.440095,-121.07957)"><g
       id="g2071"
       transform="matrix(2.3753104,0,0,2.3753104,-103.75354,-204.96535)"><path
         style="fill:#fdf29e;stroke:#000000;stroke-width:0.264583"
         d="m 83.054033,137.399 c 0,0 -4.456238,0.46402 -6.292369,3.78027 -1.836146,3.31627 -1.380563,8.26117 0.240822,7.6738 1.280318,-0.46382 0.04644,-2.95187 2.462232,-6.58581 1.785191,-2.68537 2.955561,-1.11857 4.745004,-3.3891 0.625845,-0.79409 -1.155689,-1.47916 -1.155689,-1.47916 z"
         id="path1177"
         sodipodi:nodetypes="cssssc" /><path
         style="fill:none;stroke:#d45500;stroke-width:0.264583;stroke-opacity:1"
         d="m 76.425343,147.16315 c -0.0055,-0.32148 -0.01053,-0.64101 0.03452,-0.95633 0.03918,-0.2742 -0.0113,-0.55335 0.0345,-0.82806 0.0236,-0.14155 -0.0013,-0.27157 0.0345,-0.41404 0.01153,-0.046 -0.0232,-0.0447 0,-0.10255 0.01545,-0.0385 0.05029,-0.0665 0.06901,-0.1035 0.01508,-0.0298 -0.0066,-0.0675 0,-0.10027 0.0323,-0.15997 0.06407,-0.32413 0.103507,-0.4814 0.01386,-0.0553 -0.01857,-0.1159 0,-0.17165 0.01312,-0.0393 0.05353,-0.065 0.06901,-0.10351 0.01323,-0.0329 -0.0067,-0.069 0,-0.10255 0.03219,-0.16095 0.0372,-0.32388 0.06901,-0.48209 0.02445,-0.12154 0.04892,-0.16628 0.103508,-0.27515 0.01535,-0.0306 -0.0083,-0.0695 0,-0.10274 0.02474,-0.0987 0.03628,-0.21069 0.06901,-0.30886 0.02532,-0.0759 0.06458,-0.0949 0.103089,-0.17168 0.06041,-0.12044 0.0966,-0.29173 0.167209,-0.43261 0.07152,-0.1427 0.0348,-0.31088 0.10274,-0.44209 0.01508,-0.0291 0.05354,-0.0393 0.06848,-0.0685 0.005,-0.01 0,-0.0219 0,-0.0329 0.01095,-0.0219 0.01921,-0.0454 0.03288,-0.0658 0.04343,-0.0646 0.122812,-0.1107 0.171233,-0.17123 0.05181,-0.0648 0.0862,-0.14226 0.13801,-0.20702 0.04064,-0.0508 0.09737,-0.0872 0.138012,-0.13801 0.100017,-0.12502 0.113929,-0.19857 0.172513,-0.34503 0.0158,-0.0395 0.07974,-0.0678 0.103511,-0.10351 0.08797,-0.13195 0.142168,-0.3069 0.272084,-0.40434 0.210169,-0.15763 0.470178,-0.32906 0.724556,-0.41403 0.04485,-0.015 0.09413,-0.0159 0.137586,-0.0345 0.120676,-0.0518 0.260988,-0.12975 0.372986,-0.20456 0.0268,-0.0179 0.03977,-0.0535 0.06837,-0.0684 0.08562,-0.0445 0.181348,-0.0834 0.270299,-0.13703 0.106473,-0.0642 0.209912,-0.13207 0.309287,-0.2066 0.0698,-0.0523 0.166714,-0.0479 0.240287,-0.1031 0.02604,-0.0195 0.04198,-0.0509 0.06901,-0.069 0.06671,-0.0447 0.197744,-0.0647 0.273507,-0.10267 0.03696,-0.0185 0.12096,-0.0906 0.172514,-0.10351 0.08704,-0.0217 0.185989,-0.0258 0.270846,-0.069 0.154636,-0.0788 0.315047,-0.12513 0.466659,-0.20411 0.046,-0.024 0.136678,0.0162 0.185065,0 0.01543,-0.005 0.02027,-0.0267 0.0345,-0.0345 0.0529,-0.0291 0.215196,0 0.27727,0"
         id="path1353" /><path
         style="fill:none;stroke:#d45500;stroke-width:0.264583;stroke-opacity:1"
         d="m 81.055464,139.76196 c -0.168077,0.037 -0.265102,0.16932 -0.395365,0.26702 -0.150111,0.11258 -0.33383,0.15665 -0.483039,0.27602 -0.0575,0.046 -0.120441,0.0859 -0.172513,0.13801 -0.02932,0.0293 -0.03715,0.077 -0.06901,0.10351 -0.07123,0.0594 -0.169114,0.0801 -0.24152,0.13801 -0.07574,0.0606 -0.131278,0.14643 -0.207015,0.20702 -0.09851,0.0788 -0.206759,0.17234 -0.310526,0.24152 -0.0428,0.0285 -0.101642,0.0326 -0.138012,0.069 -0.02932,0.0293 -0.03968,0.0742 -0.06901,0.10351 -0.05297,0.053 -0.145587,0.10751 -0.206586,0.13801 -0.04743,0.0237 -0.145987,0.12859 -0.172085,0.17209 -0.01871,0.0312 -0.0065,0.0804 -0.0345,0.10351 -0.114908,0.0948 -0.291798,0.0704 -0.383865,0.20846 -0.09303,0.13955 -0.211201,0.36663 -0.276024,0.51754 -0.03846,0.0895 -0.06403,0.21756 -0.103246,0.30905 -0.04656,0.10863 -0.114527,0.22825 -0.138012,0.34503 -0.04449,0.22122 0.05953,0.74055 0,0.91915 -0.01447,0.0773 -0.07902,0.13386 -0.103507,0.20702 -0.01085,0.0325 0.0056,0.0689 0,0.10266 -0.02503,0.14984 -0.03968,0.30106 -0.06901,0.44772 -0.05573,0.27863 -0.0016,0.006 -0.06901,0.13801 -0.01826,0.0357 0.01794,0.0989 0,0.13475 -0.0073,0.0146 -0.02699,0.0201 -0.0345,0.0345 -0.02927,0.0562 0.01566,0.16813 0,0.23074 -0.0394,0.15761 -0.0345,0.01 -0.0345,0.10188"
         id="path1963" /></g></g></svg>
