<?xml version="1.0" encoding="UTF-8" standalone="no"?>
<!-- Created with Inkscape (http://www.inkscape.org/) -->

<svg
   width="210mm"
   height="297mm"
   viewBox="0 0 210 297"
   version="1.1"
   id="svg5"
   xml:space="preserve"
   inkscape:version="1.2 (1:1.2.1+202207142221+cd75a1ee6d)"
   sodipodi:docname="background_simple.svg"
   xmlns:inkscape="http://www.inkscape.org/namespaces/inkscape"
   xmlns:sodipodi="http://sodipodi.sourceforge.net/DTD/sodipodi-0.dtd"
   xmlns="http://www.w3.org/2000/svg"
   xmlns:svg="http://www.w3.org/2000/svg"><sodipodi:namedview
     id="namedview7"
     pagecolor="#ffffff"
     bordercolor="#000000"
     borderopacity="0.25"
     inkscape:showpageshadow="2"
     inkscape:pageopacity="0.0"
     inkscape:pagecheckerboard="0"
     inkscape:deskcolor="#d1d1d1"
     inkscape:document-units="mm"
     showgrid="false"
     inkscape:zoom="0.67780272"
     inkscape:cx="94.422755"
     inkscape:cy="490.55572"
     inkscape:window-width="1294"
     inkscape:window-height="704"
     inkscape:window-x="72"
     inkscape:window-y="27"
     inkscape:window-maximized="1"
     inkscape:current-layer="layer1" /><defs
     id="defs2" /><g
     inkscape:label="Camada 1"
     inkscape:groupmode="layer"
     id="layer1"><path
       style="fill:#008080;fill-opacity:1;stroke:#ff8000;stroke-width:0.264583;stroke-opacity:1"
       d="m 0.2974948,141.34269 0.0611471,57.81786 209.7965581,0.0794 c 0,0 -0.44276,-22.65053 -0.21657,-26.53336 -1.32219,-1.04886 -49.32507,-54.18777 -49.32507,-54.18777 L 32.840691,115.38355 Z"
       id="path3732"
       sodipodi:nodetypes="ccccccc" /><path
       style="fill:#803300;stroke-width:0.264583;stroke:#000000;stroke-opacity:1"
       d="m 46.067739,158.35442 14.03601,-31.20812 74.594851,1.83361 16.5777,35.1924 z"
       id="path284" /><path
       style="fill:#803300;stroke:#000000;stroke-width:0.264583;stroke-opacity:1"
       d="m 46.391236,161.96603 -1.162874,38.19456 3.14607,-0.008 1.464016,-37.85785 z"
       id="path965"
       sodipodi:nodetypes="ccccc" /><path
       style="fill:#803300;stroke:#000000;stroke-width:0.264583;stroke-opacity:1"
       d="m 145.97961,169.37943 4.65674,0.1602 -1.89995,30.54237 -3.16938,0.0404 z"
       id="path969"
       sodipodi:nodetypes="ccccc" /><path
       style="fill:#803300;stroke:#000000;stroke-width:0.264583;stroke-opacity:1"
       d="m 46.002283,158.24163 0.03604,4.5914 104.725077,7.11399 0.35867,-5.90512 z"
       id="path963" /><path
       style="fill:#ffe6d5;stroke:#000000;stroke-width:0.264583;stroke-opacity:1"
       d="m 162.27668,56.788772 -5.81524,66.868098 53.16652,48.74919 0.34099,-115.421417 z"
       id="path975"
       sodipodi:nodetypes="ccccc" /><path
       style="fill:#916f6f;stroke:#000000;stroke-width:0.264583;stroke-opacity:1"
       d="m 185.75248,123.94025 -18.45095,2.99983 42.37744,56.12263 0.13412,-24.88889 z"
       id="path973"
       sodipodi:nodetypes="ccccc" /><path
       style="fill:#c8b7b7;stroke:#000000;stroke-width:0.264583;stroke-opacity:1"
       d="m 167.14771,127.09545 -2.31293,17.22347 45.09475,55.27807 0.0325,-16.26489 z"
       id="path971"
       sodipodi:nodetypes="ccccc" /><path
       style="fill:#916f6f;fill-opacity:1;stroke:#000000;stroke-width:0.264583;stroke-opacity:1"
       d="m 171.1807,74.32328 -3.75189,23.754625 13.52827,12.220725 4.36323,-24.351818 z"
       id="path1033" /><path
       style="fill:#916f6f;fill-opacity:1;stroke:#000000;stroke-width:0.264583;stroke-opacity:1"
       d="m 194.81357,100.71697 -5.49429,25.25023 15.60698,14.64584 3.02053,-31.78543 z"
       id="path1035" /><path
       style="fill:#ffe6d5;fill-opacity:1;stroke:#000000;stroke-width:0.264583;stroke-opacity:1"
       d="M 34.968331,57.027092 33.468204,115.04573 0.23618658,141.2768 0.26818401,57.488657 Z"
       id="path1037"
       sodipodi:nodetypes="ccccc" /><path
       style="fill:#ffe6d5;fill-opacity:1;stroke:#000000;stroke-width:0.264583;stroke-opacity:1"
       d="m 162.09717,56.92779 -5.58096,66.97603 -122.530489,-8.73169 0.802067,-58.134914 z"
       id="path1039"
       sodipodi:nodetypes="ccccc" /><path
       style="fill:#808080;fill-opacity:1;stroke:#000000;stroke-width:0.264583;stroke-opacity:1"
       d="m 27.543614,76.537962 0.727668,44.876998 16.122068,1.1414 1.086413,-44.217276 z"
       id="path1047" /><path
       style="fill:#666666;fill-opacity:1;stroke:#000000;stroke-width:0.264583;stroke-opacity:1"
       d="m 35.79691,71.510093 -8.136654,4.967978 17.784336,1.966492 c 0,0 7.176349,-3.524592 6.360652,-3.893445 C 50.989547,74.182265 35.79691,71.510093 35.79691,71.510093 Z"
       id="path1041" /><path
       style="fill:#999999;fill-opacity:1;stroke:#000000;stroke-width:0.264583;stroke-opacity:1"
       d="m 27.858489,77.02456 -0.635343,15.999875 16.859278,0.337069 1.55239,-14.298483 z"
       id="path1043" /><path
       style="fill:#999999;fill-opacity:1;stroke:#000000;stroke-width:0.264583;stroke-opacity:1"
       d="m 28.257153,94.964532 16.864129,0.180554 -0.644388,26.003174 -17.751049,-0.61664 z"
       id="path1045" /><path
       style="fill:#666666;fill-opacity:1;stroke:#000000;stroke-width:0.264583;stroke-opacity:1"
       d="m 51.920377,74.718869 c 0.398484,0.742342 -1.457999,42.399641 -1.457999,42.399641 l -6.008182,5.7128 1.236652,-44.375259 z"
       id="path1049" /><path
       style="fill:#000000;fill-opacity:1;stroke:#000000;stroke-width:0.264583;stroke-opacity:1"
       d="m 73.752945,104.37239 1.693481,-6.031097 -22.512951,-1.454529 -4.222922,5.946456 z"
       id="path1105" /><path
       style="fill:#552200;fill-opacity:1;stroke:#000000;stroke-width:0.264583;stroke-opacity:1"
       d="m 48.583508,102.88998 0.492845,19.15452 23.841127,1.19662 0.887286,-18.83836 z"
       id="path1107" /><path
       style="fill:#552200;fill-opacity:1;stroke:#000000;stroke-width:0.264583;stroke-opacity:1"
       d="m 75.530704,98.440551 0.317156,19.644519 -2.66033,5.09002 0.517678,-18.6653 z"
       id="path1379" /><path
       style="fill:#4d4d4d;fill-opacity:1;stroke:#000000;stroke-width:0.264583;stroke-opacity:1"
       d="m 76.35129,97.460153 -2.411126,7.109887 27.361046,0.43285 2.10126,-7.505872 z"
       id="path1163" /><path
       style="fill:#333333;fill-opacity:1;stroke:#000000;stroke-width:0.264583;stroke-opacity:1"
       d="m 80.139616,99.055279 -1.845218,3.802741 18.015063,0.49295 c 0,0 1.464499,-4.155097 0.593025,-4.01694 -0.871474,0.13816 -16.76287,-0.278751 -16.76287,-0.278751 z"
       id="path1275"
       sodipodi:nodetypes="cccsc" /><path
       style="fill:#1a1a1a;fill-opacity:1;stroke:#000000;stroke-width:0.264583;stroke-opacity:1"
       d="m 80.313637,99.124605 0.230093,3.905245 -2.070063,-0.15675 z"
       id="path1277" /><path
       style="fill:#552200;fill-opacity:1;stroke:#000000;stroke-width:0.264583;stroke-opacity:1"
       d="m 74.132415,104.4715 -0.507283,19.04786 27.309328,0.48384 0.18828,-18.86505 z"
       id="path1375" /><path
       style="fill:#552200;fill-opacity:1;stroke:#000000;stroke-width:0.264583;stroke-opacity:1"
       d="m 103.46733,97.90142 -0.56821,19.79214 c 0,0 -1.52506,7.47987 -1.52506,6.57172 0,-0.90815 -0.22383,-19.31967 -0.22383,-19.31967 z"
       id="path1377" /><path
       style="fill:#800000;fill-opacity:1;stroke:#000000;stroke-width:0.264583;stroke-opacity:1"
       d="M 61.368029,94.530644 58.8514,99.353006 67.915723,99.69651 66.338224,94.895322 Z"
       id="path1435" /><path
       style="fill:#00ffff;fill-opacity:1;stroke:#000000;stroke-width:0.264583;stroke-opacity:1"
       d="m 60.004361,86.554359 1.433608,7.919225 4.755277,0.337675 0.985536,-7.420674 z"
       id="path1437" /><path
       style="fill:#aa0000;fill-opacity:1;stroke:#000000;stroke-width:0.264583;stroke-opacity:1"
       d="m 60.161693,85.434169 v 1.219578 l 7.098107,0.969106 0.372784,-1.648143 z"
       id="path1439" /><path
       style="fill:#00ffff;fill-opacity:1;stroke:#000000;stroke-width:0.234156;stroke-opacity:1"
       d="m 66.342729,88.088585 1.064697,0.09694 c 0,0 1.822999,2.522076 0.677252,4.034974 -1.145746,1.512895 -1.233285,1.698673 -1.233285,1.698673 l -1.23135,-0.01958 c 0,0 2.690784,-2.660028 0.722686,-5.811015 z"
       id="path1443" /><path
       style="fill:#00ffff;fill-opacity:1;stroke:#000000;stroke-width:0.264583;stroke-opacity:1"
       d="m 106.88356,86.276877 0.29236,12.29776 17.9391,-0.253162 c 0,0 2.00771,-11.571089 1.41066,-11.688029 -0.59704,-0.116938 -19.64212,-0.356569 -19.64212,-0.356569 z"
       id="path1499" /><path
       style="fill:#808080;fill-opacity:1;stroke:#000000;stroke-width:0.264583;stroke-opacity:1"
       d="m 106.90409,98.755932 -1.99562,7.679408 24.0192,-0.72361 -3.85022,-7.225954 z"
       id="path1501" /><path
       style="fill:#999999;fill-opacity:1;stroke:#000000;stroke-width:0.264583;stroke-opacity:1"
       d="m 104.69278,106.59151 -0.031,3.97522 24.24775,0.0528 0.0135,-4.64266 z"
       id="path1503" /><path
       style="fill:#ffff00;fill-opacity:1;stroke:#000000;stroke-width:0.264583;stroke-opacity:1"
       d="m 110.55978,85.357281 -0.34553,9.379942 13.27598,0.28361 -0.15028,-9.681681 z"
       id="path1505" /><path
       style="fill:#999999;fill-opacity:1;stroke:#000000;stroke-width:0.264583;stroke-opacity:1"
       d="m 105.56303,110.55527 c 0,0.69689 -0.87172,12.79755 -0.87172,12.79755 l 21.79267,1.34583 1.34838,-14.03018 z"
       id="path1507" /><path
       style="fill:#cccccc;fill-opacity:1;stroke:#000000;stroke-width:0.264583;stroke-opacity:1"
       d="m 107.63355,111.66474 -0.6194,9.48237 c 0,0 15.88118,0.589 16.05616,0.0641 0.17497,-0.52493 2.02424,-9.54965 0.55479,-9.41481 -1.46946,0.13484 -15.99155,-0.13164 -15.99155,-0.13164 z"
       id="path1509" /><rect
       style="fill:#cccccc;fill-opacity:1;stroke:#000000;stroke-width:0.264583;stroke-opacity:1"
       id="rect1623"
       width="6.7959242"
       height="0.99648321"
       x="102.40226"
       y="101.66473" /><rect
       style="fill:#cccccc;fill-opacity:1;stroke:#000000;stroke-width:0.264583;stroke-opacity:1"
       id="rect1563"
       width="6.8631115"
       height="2.345927"
       x="108.46512"
       y="101.4817" /><rect
       style="fill:#cccccc;fill-opacity:1;stroke:#000000;stroke-width:0.264583;stroke-opacity:1"
       id="rect1565"
       width="5.2583075"
       height="5.9748936"
       x="118.24567"
       y="99.020287" /><ellipse
       style="fill:#cccccc;fill-opacity:1;stroke:#000000;stroke-width:0.264583;stroke-opacity:1"
       id="path1619"
       cx="111.94459"
       cy="101.3827"
       rx="3.3486822"
       ry="0.54355299" /><ellipse
       style="fill:#cccccc;fill-opacity:1;stroke:#000000;stroke-width:0.264583;stroke-opacity:1"
       id="path1621"
       cx="120.80178"
       cy="99.27253"
       rx="2.4780595"
       ry="0.65947962" /><path
       style="fill:#cccccc;fill-opacity:1;stroke:#000000;stroke-width:0.175611;stroke-opacity:1"
       d="m 123.01796,100.19298 0.8243,0.0704 c 0,0 1.41137,1.83232 0.52432,2.93145 -0.88703,1.09913 -0.95481,1.23411 -0.95481,1.23411 l -0.95331,-0.0143 c 0,0 2.08321,-1.93254 0.5595,-4.22177 z"
       id="path1443-3" /><path
       style="fill:#808080;fill-opacity:1;stroke:#000000;stroke-width:0.264583;stroke-opacity:1"
       d="m 129.03234,99.310853 c -0.61986,0.953927 -1.27304,17.129717 -1.27304,17.129717 l 5.74651,10.13395 1.62729,-20.09501 z"
       id="path1706" /><path
       style="fill:#808080;fill-opacity:1;stroke:#000000;stroke-width:0.264583;stroke-opacity:1"
       d="m 135.01559,106.65767 27.24933,0.23901 -2.32189,20.13417 -26.24864,-0.79412 z"
       id="path1710"
       sodipodi:nodetypes="ccccc" /><path
       style="fill:#808080;fill-opacity:1;stroke:#000000;stroke-width:0.264583;stroke-opacity:1"
       d="m 128.02218,98.497781 28.7826,0.430424 8.67261,8.625685 -31.27105,0.26155 z"
       id="path1712" /><path
       style="fill:none;fill-opacity:1;stroke:#000000;stroke-width:0.264583;stroke-opacity:1"
       d="m 135.87221,100.76795 2.27991,3.90732 19.6161,0.29063 -3.01626,-3.43331 z"
       id="path1714"
       sodipodi:nodetypes="ccccc" /><path
       style="fill:#b3b3b3;fill-opacity:1;stroke:#000000;stroke-width:0.264583;stroke-opacity:1"
       d="m 136.86452,99.190139 17.03299,0.560033 -0.11666,3.380508 -16.27255,-0.32629 -0.98762,-1.12152 z"
       id="path1718" /><path
       style="fill:#b3b3b3;fill-opacity:1;stroke:#000000;stroke-width:0.264583;stroke-opacity:1"
       d="m 153.85461,99.806047 2.9527,3.059703 -0.0129,2.159 -0.79624,-0.16068 -2.11921,-1.74937 z"
       id="path1720" /><path
       style="fill:#b3b300;fill-opacity:1;stroke:#000000;stroke-width:0.264583;stroke-opacity:1"
       d="m 153.84585,101.65019 -15.61766,-0.31467 -0.0152,1.67184 17.51458,0.49863 z"
       id="path1780" /><path
       style="fill:#b3b3b3;fill-opacity:1;stroke:#000000;stroke-width:0.264583;stroke-opacity:1"
       d="m 136.50045,101.55552 0.32787,-2.147883 2.38869,3.015813 17.58366,0.23939 0.0542,2.16875 -18.51985,-0.13753 z"
       id="path1716" /><path
       style="fill:#b3b3b3;fill-opacity:1;stroke:#000000;stroke-width:0.264583;stroke-opacity:1"
       d="m 139.27239,102.33822 -0.34047,2.50719"
       id="path1778" /><path
       style="fill:#e6e6e6;fill-opacity:1;stroke:#000000;stroke-width:0.264583;stroke-opacity:1"
       d="m 90.226265,99.082623 c -0.160967,-0.297177 -0.391522,-0.566147 -0.482896,-0.891529 -0.07463,-0.265745 -0.02291,-0.553 0,-0.828069 0.03428,-0.411396 0.297085,-1.24342 0.138009,-1.720644 -0.121774,-0.365334 -0.577268,-0.87244 -0.786622,-1.183386 -0.108543,-0.161216 -0.07109,-0.482052 -0.131508,-0.657683 -0.142158,-0.41322 -0.67464,-0.723481 -1.118291,-0.382272 -0.67482,0.518999 -0.08556,2.33826 -0.657458,2.59139 -0.111117,0.04918 -0.207161,-0.12717 -0.312899,-0.187045 -0.02758,-0.01561 -0.29972,-0.215963 -0.305109,-0.238167 -0.03141,-0.129376 -0.101584,-2.510906 0,-2.805925 0.08403,-0.244033 0.465494,-0.654806 0.712673,-0.767003 0.164738,-0.07478 0.425149,0.05856 0.597094,0 1.236583,-0.421132 2.199243,0.235863 2.875372,1.245838 0.31483,0.470281 0.04741,1.23874 0.136284,1.771978 0.199401,1.196404 0.01429,-0.02853 0.414034,0.966079 0.149955,0.373107 -0.0794,0.965991 0,1.363009 0.07722,0.386088 0.37262,1.486945 0.01405,1.846992 -0.110593,0.111051 -0.924367,-0.09161 -1.092742,-0.123563 z"
       id="path2704" /><path
       style="fill:#000000;fill-opacity:1;stroke:#000000;stroke-width:0.264583;stroke-opacity:1"
       d="m 140.2542,102.67105 c 0,0.55397 0,1.10796 0,1.66194"
       id="path2832" /><path
       style="fill:#000000;fill-opacity:1;stroke:#000000;stroke-width:0.264583;stroke-opacity:1"
       d="m 141.66129,102.82164 c 0.0941,0.72672 -0.13959,1.4508 -0.13959,2.16774"
       id="path2834" /><path
       style="fill:#000000;fill-opacity:1;stroke:#000000;stroke-width:0.264583;stroke-opacity:1"
       d="m 143.23015,102.90321 c 0,0.62752 0,1.25505 0,1.88257"
       id="path2836" /><path
       style="fill:#000000;fill-opacity:1;stroke:#000000;stroke-width:0.264583;stroke-opacity:1"
       d="m 145.22205,102.88265 c -0.10335,0.71792 -0.0616,1.44732 -0.0616,2.17101"
       id="path2838" /><path
       style="fill:#000000;fill-opacity:1;stroke:#000000;stroke-width:0.264583;stroke-opacity:1"
       d="m 146.95311,102.99577 c -0.10633,0.5291 0.13078,1.14475 0,1.6678 -0.0765,0.30577 -0.0683,0.0306 -0.0683,0.19147"
       id="path2840" /><path
       style="fill:#000000;fill-opacity:1;stroke:#000000;stroke-width:0.264583;stroke-opacity:1"
       d="m 149.31909,102.88979 c 0.0487,0.57384 -0.28434,1.35736 0.16917,1.81086"
       id="path2842" /><path
       style="fill:#000000;fill-opacity:1;stroke:#000000;stroke-width:0.264583;stroke-opacity:1"
       d="m 150.81567,102.91496 c -0.15882,0.78227 -0.13802,1.57359 -0.13802,2.36602"
       id="path2844" /><path
       style="fill:#000000;fill-opacity:1;stroke:#000000;stroke-width:0.264583;stroke-opacity:1"
       d="m 152.03574,103.01022 c -0.0103,0.44978 0.13038,0.86018 0.13038,1.30306"
       id="path2846" /><path
       style="fill:#000000;fill-opacity:1;stroke:#000000;stroke-width:0.264583;stroke-opacity:1"
       d="m 153.51359,102.90937 c -0.0372,0.61941 -0.0691,1.23207 -0.0691,1.85461"
       id="path2848" /><path
       style="fill:#000000;fill-opacity:1;stroke:#000000;stroke-width:0.264583;stroke-opacity:1"
       d="m 154.82579,102.92871 c -0.12762,1.05936 0.10686,-0.69175 -0.24883,0.9681 -0.0477,0.2225 0,0.5248 0,0.75706"
       id="path2850" /><path
       style="fill:#000000;fill-opacity:1;stroke:#000000;stroke-width:0.264583;stroke-opacity:1"
       d="m 155.96531,103.02794 c -0.0266,0.44565 -0.13801,0.77774 -0.13801,1.20443"
       id="path2852" /><path
       style="fill:#000000;fill-opacity:1;stroke:#000000;stroke-width:0.264583;stroke-opacity:1"
       d="m 139.95034,103.45573 c 4.19384,0 8.38768,0 12.58152,0 0.82715,0 1.6543,0 2.48144,0 0.26813,0 0.63226,-0.0658 0.88459,0 0.11178,0.0291 0.22947,0.13801 0.3325,0.13801"
       id="path2854" /><path
       style="fill:#000000;fill-opacity:1;stroke:#000000;stroke-width:0.264583;stroke-opacity:1"
       d="m 139.54444,104.25716 c 1.09864,0 2.19727,0 3.29591,0 3.13587,0 6.27175,0 9.40762,0 0.57505,0 1.15009,0 1.72514,0 0.21089,0 0.47619,-0.0306 0.69006,0 0.22088,0.0315 0.41387,0.0966 0.62105,0.13801 0.32093,0.0642 0.61778,0.069 0.94914,0.069 0.0898,0 0.17971,0 0.26956,0 0.0209,0 0.0834,0 0.0625,0 -0.0421,0 -0.0842,0 -0.12632,0"
       id="path2856" /><path
       style="fill:#000000;fill-opacity:1;stroke:#000000;stroke-width:0.264583;stroke-opacity:1"
       d="m 138.46808,102.1296 c -1.06879,1.83718 -0.25761,0.12362 -0.48152,1.24174 -0.033,0.16491 -0.21251,0.47623 -0.33402,0.59774"
       id="path2858" /><path
       style="fill:#000000;fill-opacity:1;stroke:#000000;stroke-width:0.264583;stroke-opacity:1"
       d="m 137.86484,101.19867 c -0.33947,0.61756 -0.54046,1.21594 -0.54046,1.92103"
       id="path2860" /><path
       style="fill:#000000;fill-opacity:1;stroke:#000000;stroke-width:0.264583;stroke-opacity:1"
       d="m 137.24553,100.40056 c -0.014,0.5656 0.0417,1.1471 -0.069,1.70045 -0.0989,0.49435 -0.069,-0.29855 -0.069,0.33836"
       id="path2862" /><path
       style="fill:#000000;fill-opacity:1;stroke:#000000;stroke-width:0.264583;stroke-opacity:1"
       d="m 137.16653,101.76584 c 0.29908,0.46743 0.56705,1.05008 0.96608,1.44912 0.001,10e-4 0.27207,0.13546 0.27433,0.13716 0.23388,0.17559 0.42049,0.35149 0.62105,0.55204"
       id="path2864" /><path
       style="fill:#000000;fill-opacity:1;stroke:#000000;stroke-width:0.264583;stroke-opacity:1"
       d="m 138.58257,99.699711 c 0.0391,0.587589 0.0281,1.176339 0.0281,1.764679"
       id="path2866" /><path
       style="fill:#000000;fill-opacity:1;stroke:#000000;stroke-width:0.264583;stroke-opacity:1"
       d="m 140.01191,99.825438 c 0,0.133562 -0.0267,0.269822 0,0.400692 0.0414,0.20317 0.18874,0.30905 0.27607,0.48312 0.0532,0.10611 0.0287,0.27851 0.0658,0.38762 0.0267,0.0785 0.0604,0.0678 0.11322,0.0678"
       id="path2868" /><path
       style="fill:#000000;fill-opacity:1;stroke:#000000;stroke-width:0.264583;stroke-opacity:1"
       d="m 141.78404,99.306712 c -0.0746,0.603896 -0.0618,1.209888 -0.0618,1.815818"
       id="path2870" /><path
       style="fill:#000000;fill-opacity:1;stroke:#000000;stroke-width:0.264583;stroke-opacity:1"
       d="m 143.19981,99.438686 c -0.0223,0.702824 -0.13811,1.354714 -0.13811,2.047904"
       id="path2872" /><path
       style="fill:#000000;fill-opacity:1;stroke:#000000;stroke-width:0.264583;stroke-opacity:1"
       d="m 144.46993,99.818654 c -0.10145,0.541576 -0.13816,1.079856 -0.13816,1.628216"
       id="path2874" /><path
       style="fill:#000000;fill-opacity:1;stroke:#000000;stroke-width:0.264583;stroke-opacity:1"
       d="m 145.94019,100.17781 c 0.0447,0.47526 -0.13801,0.92547 -0.13801,1.39769"
       id="path2876" /><path
       style="fill:#000000;fill-opacity:1;stroke:#000000;stroke-width:0.264583;stroke-opacity:1"
       d="m 147.3125,99.778192 c 0.37916,0.05822 -0.46874,1.308448 -0.21394,1.563268"
       id="path2878" /><path
       style="fill:#000000;fill-opacity:1;stroke:#000000;stroke-width:0.264583;stroke-opacity:1"
       d="m 148.28064,100.01685 c 0.088,0.30223 -0.15457,1.36061 0.0605,1.57567"
       id="path2880" /><path
       style="fill:#000000;fill-opacity:1;stroke:#000000;stroke-width:0.264583;stroke-opacity:1"
       d="m 149.42018,100.08501 c 0.0628,0.33953 -0.15276,1.13937 0.0625,1.35465"
       id="path2882" /><path
       style="fill:#000000;fill-opacity:1;stroke:#000000;stroke-width:0.264583;stroke-opacity:1"
       d="m 150.90231,100.21602 c 0.0162,0.49557 0.0409,0.95376 0.17091,1.43251"
       id="path2884" /><path
       style="fill:#000000;fill-opacity:1;stroke:#000000;stroke-width:0.264583;stroke-opacity:1"
       d="m 152.6305,100.08024 c -0.24964,0.48588 -0.32772,0.8461 -0.32772,1.36201"
       id="path2886" /><path
       style="fill:#000000;fill-opacity:1;stroke:#000000;stroke-width:0.264583;stroke-opacity:1"
       d="m 138.66402,100.46497 c 0.91893,0.20064 1.82362,0.21141 2.75989,0.21141 1.35492,0 2.70984,0 4.06476,0 0.52456,0 1.0647,0.0348 1.58713,0 0.11703,-0.008 0.22933,-0.0497 0.34503,-0.069 0.36528,-0.0609 0.80536,0 1.17309,0 0.37733,0 0.79601,-0.0471 1.1731,0 0.39818,0.0498 0.78301,0.142 1.17309,0.20702 0.0681,0.0113 0.14067,-0.019 0.20702,0 0.0989,0.0283 0.17622,0.11306 0.27602,0.13801 0.32167,0.0804 0.7063,-0.047 1.03508,0 0.33586,0.048 0.64101,0.069 0.97674,0.069"
       id="path2888" /><path
       style="fill:#000000;fill-opacity:1;stroke:#000000;stroke-width:0.264583;stroke-opacity:1"
       d="m 154.06217,101.1208 c 0.72457,0.38408 1.41293,0.78592 2.04478,1.30087 0.0497,0.0405 -0.0188,0.31838 0,0.39015 0.0291,0.11121 0.13802,0.22873 0.13802,0.33132"
       id="path2890" /><path
       style="fill:#000000;fill-opacity:1;stroke:#000000;stroke-width:0.264583;stroke-opacity:1"
       d="m 154.57755,100.69818 c 0.11663,0.27014 0.0225,1.18446 0.2017,1.36366"
       id="path2892" /><path
       style="fill:#ff6600;fill-opacity:1;stroke:#000000;stroke-width:0.264583;stroke-opacity:1"
       d="m 155.12177,101.39997 c 0.0101,0.20197 0.036,0.40377 0.0302,0.60591 -0.007,0.254 -0.0521,0.50563 -0.069,0.75917 -0.008,0.11477 0,0.23005 0,0.34507 0,0.0206 0,-0.0413 0,-0.0619"
       id="path2894" /><path
       style="fill:none;fill-opacity:1;stroke:#ff8000;stroke-width:0.264583;stroke-opacity:1"
       d="m 111.65341,85.675805 c 0.0228,0.129016 0.0327,0.260953 0.0683,0.387046 0.0336,0.11938 0.1223,0.222469 0.13819,0.345477 0.13703,1.060714 -0.0962,0.365582 0,1.232818 0.0348,0.313809 0.12805,0.619477 0.16002,0.933587 0.0332,0.32621 0,0.655794 0,0.983689 0,0.667055 0,1.334106 0,2.001161 0,0.228996 -0.0743,1.919078 0.0622,2.055571"
       id="path3026" /><path
       style="fill:none;fill-opacity:1;stroke:#ff8000;stroke-width:0.264583;stroke-opacity:1"
       d="m 113.13406,85.893912 c -0.1444,0.625022 -0.0917,0.261138 -0.0917,1.099216 0,0.673622 0,1.34724 0,2.020859 0,0.421447 0.056,1.036343 0,1.484516 -0.0259,0.207425 -0.16526,0.412358 -0.20702,0.621051 -0.10427,0.521118 -0.17258,1.40307 -1.6e-4,1.920301"
       id="path3656" /><path
       style="fill:none;fill-opacity:1;stroke:#ff8000;stroke-width:0.264583;stroke-opacity:1"
       d="m 114.46712,86.028312 c -0.0612,0.406072 -0.12355,0.811964 -0.1835,1.218216 -0.24432,1.655585 -0.30053,1.735349 -0.36232,3.261421 -0.0262,0.646919 -0.005,1.249034 -0.069,1.886685 -0.0242,0.241996 0.12114,1.139415 -0.0632,1.323779"
       id="path3658" /><path
       style="fill:none;fill-opacity:1;stroke:#ff8000;stroke-width:0.264583;stroke-opacity:1"
       d="m 115.91003,86.50806 c -0.21926,1.803088 -0.96468,3.54906 -1.04985,5.37125 -0.0333,0.713309 0,1.440474 0,2.15664"
       id="path3660" /><path
       style="fill:none;fill-opacity:1;stroke:#ff8000;stroke-width:0.264583;stroke-opacity:1"
       d="m 117.3392,86.2551 c -0.40386,1.585333 -0.711,3.191475 -1.0213,4.796655 -0.0532,0.275338 -0.19725,0.897384 -0.21786,1.223285 -0.0301,0.475329 0,0.967957 0,1.446048"
       id="path3662" /><path
       style="fill:none;fill-opacity:1;stroke:#ff8000;stroke-width:0.264583;stroke-opacity:1"
       d="m 118.85392,86.141747 c -0.0208,0.104261 -0.0417,0.208523 -0.0626,0.312785 -0.13022,0.731599 -0.24785,1.465551 -0.39067,2.194795 -0.0989,0.504807 -0.21433,1.006335 -0.33422,1.50657 -0.068,0.283683 -0.18442,0.556336 -0.22926,0.844587 -0.0322,0.207195 0,0.419375 0,0.62906 0,0.687837 0,1.375674 0,2.063514 0,0.246629 0.11327,0.783797 -0.0622,0.959252"
       id="path3664" /><path
       style="fill:none;fill-opacity:1;stroke:#ff8000;stroke-width:0.264583;stroke-opacity:1"
       d="m 120.16028,86.296176 c 0,2.234091 0,4.46818 0,6.702272 0,0.02661 -0.0376,1.885918 0.0643,1.906103 0.17576,0.03481 -0.0458,-0.356735 -0.0947,-0.529119"
       id="path3666" /><path
       style="fill:none;fill-opacity:1;stroke:#ff8000;stroke-width:0.264583;stroke-opacity:1"
       d="m 121.6685,86.722071 c -0.0688,0.233759 -0.1622,0.461658 -0.2065,0.70128 -0.27672,1.49709 -0.50425,3.003196 -0.71753,4.51063 -0.17712,1.25195 -0.27104,1.693249 -0.0434,2.830489 0.0344,0.17209 -0.23785,0.0048 -0.23785,-0.131522"
       id="path3668" /><path
       style="fill:none;fill-opacity:1;stroke:#ff8000;stroke-width:0.264583;stroke-opacity:1"
       d="m 111.85495,87.657976 9.58395,1.484762"
       id="path3670" /><path
       style="fill:none;fill-opacity:1;stroke:#ff8000;stroke-width:0.264583;stroke-opacity:1"
       d="m 110.73762,89.501675 c 1.22543,0 0.0162,-0.03195 2.4712,0.410942 6.14783,1.109099 -1.73817,-0.510693 5.4334,1.139426 0.66339,0.152638 1.32967,0.297458 2.00268,0.399658 0.10175,0.01545 1.24879,0 0.4326,0"
       id="path3672" /><path
       style="fill:none;fill-opacity:1;stroke:#ff8000;stroke-width:0.264583;stroke-opacity:1"
       d="m 111.6164,91.383251 c 0.94559,0.596739 2.03922,0.640173 3.09251,0.828638 4.01383,0.718196 -0.3742,-0.003 2.62198,0.57282 0.81375,0.156398 0.69825,0.03664 1.67751,0.08306 0.17168,0.0081 0.33886,0.06222 0.51037,0.07331 0.39082,0.02529 0.78326,0 1.17489,0 0.0386,0 0.55194,0 0.40095,0"
       id="path3674" /><path
       style="fill:none;fill-opacity:1;stroke:#ff8000;stroke-width:0.264583;stroke-opacity:1"
       d="m 111.54173,93.025522 c 2.68535,0.546132 5.39205,0.978583 8.08297,1.49397 0.73814,0.141378 2.22428,0.648002 3.12635,0.49113 0.0176,-0.0031 -0.0781,-0.140866 -0.0614,-0.257624 0.0209,-0.145651 0.23998,-0.924129 -0.14306,-0.924129"
       id="path3676" /></g></svg>
